<svg width="320" height="220" viewBox="0 0 320 220" fill="none" xmlns="http://www.w3.org/2000/svg">
  <defs>
    <linearGradient id="bg" x1="40" y1="24" x2="280" y2="194" gradientUnits="userSpaceOnUse">
      <stop stop-color="#F0E3D0"/>
      <stop offset="1" stop-color="#D0B083"/>
    </linearGradient>
  </defs>
  <rect width="320" height="220" rx="34" fill="url(#bg)"/>
  <rect x="28" y="34" width="264" height="2" rx="1" fill="#9B7B54" opacity=".34"/>
  <rect x="96" y="60" width="128" height="100" rx="18" fill="#FFF8EF" opacity=".86"/>
  <path d="M128 80H194C201.7 80 208 86.3 208 94V150H142C134.3 150 128 143.7 128 136V80Z" fill="#C29A62"/>
  <path d="M114 94C114 86.3 120.3 80 128 80H142V150H128C120.3 150 114 143.7 114 136V94Z" fill="#E7D1AF"/>
  <path d="M142 94H194" stroke="#FFF8EF" stroke-width="8" stroke-linecap="round" opacity=".9"/>
  <path d="M142 114H194" stroke="#FFF8EF" stroke-width="8" stroke-linecap="round" opacity=".75"/>
  <path d="M142 134H182" stroke="#FFF8EF" stroke-width="8" stroke-linecap="round" opacity=".6"/>
</svg>
